# xmcd
#
# Track frame offsets:
#	150
#	12415
#	22417
#	33839
#	42901
#	53912
#	67037
#	77644
#	89257
#	101024
#
# Disc length: 1514 seconds
#
# Revision: 0
# Processed by: cddbd v1.5.2PL0 Copyright (c) Steve Scherf et al.
# Submitted via: EasyCDDAExtractor 10.0.4.1
#
DISCID=7f05e80a
DTITLE=Various Artist - 30 No 1 1950 Country Hits Disk 1
DYEAR=1900
DGENRE=
TTITLE0=Hank Williams - Your Cheatin Heart
TTITLE1=Johnny Cash - Ballad Of A Teenage Queen
TTITLE2=George Jones - White Lightning
TTITLE3=Jim Reeves - Billy Bayou (Live)
TTITLE4=Carl Smith - Hey Joe
TTITLE5=Hank Williams - Jambalaya On The Bayou
TTITLE6=Webb Pierce - In The Jailhouse Now
TTITLE7=Eddie Arnold - I Really Don't Want To Know
TTITLE8=Don Gibson - Oh Lonesome Me
TTITLE9=Porter Wagoner - A Satisfied Mind
EXTD=
EXTT0=
EXTT1=
EXTT2=
EXTT3=
EXTT4=
EXTT5=
EXTT6=
EXTT7=
EXTT8=
EXTT9=
PLAYORDER=
